<mxfile host="app.diagrams.net" agent="Mozilla/5.0 (Windows NT 10.0; Win64; x64) AppleWebKit/537.36 (KHTML, like Gecko) Chrome/126.0.0.0 Safari/537.36 OPR/112.0.0.0" version="24.7.12">
  <diagram name="Страница — 1" id="RolyPFwZq1qflpm33d3U">
    <mxGraphModel dx="789" dy="427" grid="1" gridSize="10" guides="1" tooltips="1" connect="1" arrows="1" fold="1" page="1" pageScale="1" pageWidth="827" pageHeight="1169" math="0" shadow="0">
      <root>
        <mxCell id="0" />
        <mxCell id="1" parent="0" />
        <mxCell id="ZodCC7kFXzASDTPhLEkf-1" value="Начало" style="strokeWidth=2;html=1;shape=mxgraph.flowchart.terminator;whiteSpace=wrap;" vertex="1" parent="1">
          <mxGeometry x="352" y="20" width="124" height="60" as="geometry" />
        </mxCell>
        <mxCell id="ZodCC7kFXzASDTPhLEkf-2" value="phoneNumb" style="shape=parallelogram;perimeter=parallelogramPerimeter;whiteSpace=wrap;html=1;fixedSize=1;" vertex="1" parent="1">
          <mxGeometry x="354" y="130" width="120" height="40" as="geometry" />
        </mxCell>
        <mxCell id="ZodCC7kFXzASDTPhLEkf-4" value="" style="endArrow=none;html=1;rounded=0;exitX=1;exitY=0.5;exitDx=0;exitDy=0;" edge="1" parent="1" source="ZodCC7kFXzASDTPhLEkf-2">
          <mxGeometry width="50" height="50" relative="1" as="geometry">
            <mxPoint x="520" y="180" as="sourcePoint" />
            <mxPoint x="540" y="150" as="targetPoint" />
          </mxGeometry>
        </mxCell>
        <mxCell id="ZodCC7kFXzASDTPhLEkf-5" value="" style="endArrow=none;html=1;rounded=0;" edge="1" parent="1">
          <mxGeometry width="50" height="50" relative="1" as="geometry">
            <mxPoint x="540" y="170" as="sourcePoint" />
            <mxPoint x="540" y="130" as="targetPoint" />
          </mxGeometry>
        </mxCell>
        <mxCell id="ZodCC7kFXzASDTPhLEkf-6" value="Ввод номера телефона" style="text;html=1;align=center;verticalAlign=middle;resizable=0;points=[];autosize=1;strokeColor=none;fillColor=none;" vertex="1" parent="1">
          <mxGeometry x="540" y="135" width="150" height="30" as="geometry" />
        </mxCell>
        <mxCell id="ZodCC7kFXzASDTPhLEkf-7" value="phoneNumb == &#39;+&#39;" style="strokeWidth=2;html=1;shape=mxgraph.flowchart.decision;whiteSpace=wrap;" vertex="1" parent="1">
          <mxGeometry x="336" y="210" width="156" height="150" as="geometry" />
        </mxCell>
      </root>
    </mxGraphModel>
  </diagram>
</mxfile>
